<svg xmlns="http://www.w3.org/2000/svg" width="256" height="256" viewBox="0 0 256 256" fill="none"><rect width="256" height="256" fill="white"></rect><g clip-path="url(#clip0_201_2)"><path d="M117.889 40.4004C73.9553 45.4152 39.8292 82.7204 39.8291 127.996C39.8291 173.272 73.9553 210.576 117.889 215.591V219H37V218.999H57.2227L46.5049 208.079L37 198.776V57.2158L47.9131 46.5049L57.2148 37H117.889V40.4004ZM219 37.001H198.777L209.495 47.9209L219 57.2236V198.783L208.087 209.495L198.785 219H138.111V215.591C182.042 210.574 216.167 173.27 216.167 127.996C216.167 82.722 182.042 45.4173 138.111 40.4004V37H219V37.001Z" fill="black"></path></g><defs><clipPath id="clip0_201_2"><rect width="182" height="182" fill="white" transform="translate(219 37) rotate(90)"></rect></clipPath></defs></svg>